<?xml version="1.0" encoding="iso-8859-1"?>
<!-- Generator: Adobe Illustrator 18.0.0, SVG Export Plug-In . SVG Version: 6.00 Build 0)  -->
<!DOCTYPE svg PUBLIC "-//W3C//DTD SVG 1.1//EN" "http://www.w3.org/Graphics/SVG/1.1/DTD/svg11.dtd">
<svg version="1.1" id="Capa_1" xmlns="http://www.w3.org/2000/svg" xmlns:xlink="http://www.w3.org/1999/xlink" x="0px" y="0px"
	 viewBox="0 0 58 58" style="enable-background:new 0 0 58 58;" xml:space="preserve">
<g>
	<path style="fill:#AF714F;" d="M54,11.16l-0.618-0.294c-5.367-2.556-11.964-4.032-18.764-4.46L34,8.261h-4l-0.658-1.973
		c-7.827,0.137-15.58,1.652-21.724,4.578c-0.165,0.078-0.297,0.2-0.401,0.341C9.325,11.69,11,19.083,11,28.16
		S9.325,44.631,7.217,45.114c0.104,0.141,0.236,0.263,0.401,0.341c12.894,6.14,32.87,6.14,45.764,0L54,45.16
		c1.562-1.563,4-7.611,4-17S55.656,12.816,54,11.16z"/>
	<path style="fill:#805333;" d="M17.545,48.717c1.238,0.265,2.492,0.504,3.772,0.69C22.934,44.838,24,37.03,24,28.16
		s-1.066-16.678-2.683-21.246c-1.28,0.186-2.534,0.425-3.772,0.69C19.033,12.243,20,19.717,20,28.16S19.033,44.077,17.545,48.717z"
		/>
	<path style="fill:#805333;" d="M44.631,48.451c1.499-0.356,2.953-0.771,4.357-1.246C50.222,42.535,51,35.735,51,28.16
		s-0.778-14.375-2.012-19.045c-1.404-0.475-2.859-0.89-4.357-1.246C46.07,12.526,47,19.879,47,28.16
		C47,36.441,46.07,43.794,44.631,48.451z"/>
	<path style="fill:#805333;" d="M34,43.261h-6c-0.553,0-1-0.447-1-1s0.447-1,1-1h6c0.553,0,1,0.447,1,1S34.553,43.261,34,43.261z"/>
	<path style="fill:#805333;" d="M40,41.261h-4c-0.553,0-1-0.447-1-1s0.447-1,1-1h4c0.553,0,1,0.447,1,1S40.553,41.261,40,41.261z"/>
	<path style="fill:#805333;" d="M36,46.261h-5c-0.553,0-1-0.447-1-1s0.447-1,1-1h5c0.553,0,1,0.447,1,1S36.553,46.261,36,46.261z"/>
	<path style="fill:#805333;" d="M40,44.261h-1c-0.553,0-1-0.447-1-1s0.447-1,1-1h1c0.553,0,1,0.447,1,1S40.553,44.261,40,44.261z"/>
	<path style="fill:#805333;" d="M33,13.16h-5c-0.553,0-1-0.447-1-1s0.447-1,1-1h5c0.553,0,1,0.447,1,1S33.553,13.16,33,13.16z"/>
	<path style="fill:#805333;" d="M42,13.16h-5c-0.553,0-1-0.447-1-1s0.447-1,1-1h5c0.553,0,1,0.447,1,1S42.553,13.16,42,13.16z"/>
	<path style="fill:#805333;" d="M29,17.16h-2c-0.553,0-1-0.447-1-1s0.447-1,1-1h2c0.553,0,1,0.447,1,1S29.553,17.16,29,17.16z"/>
	<path style="fill:#805333;" d="M42,17.16h-9c-0.553,0-1-0.447-1-1s0.447-1,1-1h9c0.553,0,1,0.447,1,1S42.553,17.16,42,17.16z"/>
	<path style="fill:#805333;" d="M34,39.261h-4c-0.553,0-1-0.447-1-1s0.447-1,1-1h4c0.553,0,1,0.447,1,1S34.553,39.261,34,39.261z"/>
	<path style="fill:#805333;" d="M34,21.16h-4c-0.553,0-1-0.447-1-1s0.447-1,1-1h4c0.553,0,1,0.447,1,1S34.553,21.16,34,21.16z"/>
	<polygon style="fill:#805333;" points="34,8.261 30,8.261 28,2.261 36,2.261 	"/>
	<path style="fill:#AF714F;" d="M7,26.261H4H2.905C1.3,26.261,0,27.561,0,29.166v1.095v4h4v-2.368c0-0.901,0.731-1.632,1.632-1.632
		H7V26.261z"/>
	<path style="fill:#805333;" d="M7,11.16c-2.058,0-3.751,6.607-3.974,15.101H4h3v4H5.632C4.731,30.261,4,30.992,4,31.893v2.368H3.27
		C3.847,40.632,5.297,45.16,7,45.16c2.209,0,4-7.611,4-17S9.209,11.16,7,11.16z"/>
	<path style="fill:#805333;" d="M51.007,46.481c-1.16,0.459-2.374,0.861-3.615,1.232l3.503,6.687c0.249,0.797,0.987,1.34,1.822,1.34
		h0c1.288,0,2.206-1.249,1.822-2.478L51.007,46.481z"/>
	<path style="fill:#805333;" d="M40.763,49.222l-2.675,4.038c-0.384,1.229,0.534,2.478,1.822,2.478c0.835,0,1.573-0.543,1.822-1.34
		l3.3-6.039C43.643,48.702,42.214,48.984,40.763,49.222z"/>
	<path style="fill:#805333;" d="M24.73,49.798c-1.405-0.125-2.792-0.302-4.162-0.519l3.013,5.121c0.249,0.797,0.987,1.34,1.822,1.34
		c1.288,0,2.206-1.249,1.822-2.478L24.73,49.798z"/>
	<path style="fill:#805333;" d="M13.896,47.795l-3.121,5.466c-0.384,1.229,0.534,2.478,1.822,2.478c0.835,0,1.573-0.543,1.822-1.34
		l3.185-5.67C16.338,48.461,15.102,48.147,13.896,47.795z"/>
</g>
<g>
</g>
<g>
</g>
<g>
</g>
<g>
</g>
<g>
</g>
<g>
</g>
<g>
</g>
<g>
</g>
<g>
</g>
<g>
</g>
<g>
</g>
<g>
</g>
<g>
</g>
<g>
</g>
<g>
</g>
</svg>
